<?xml version="1.0" ?><svg data-name="Layer 1" id="Layer_1" viewBox="0 0 512 512" xmlns="http://www.w3.org/2000/svg"><path d="M345.44,142.79,395.92,67.9h52.41a5,5,0,1,0,0-10H393.25a5,5,0,0,0-4.16,2.21l-52,77.18a153.85,153.85,0,0,0-81.06-23c-85.37,0-154.82,69.45-154.82,154.82a154.46,154.46,0,0,0,50.89,114.66L115.91,444.1H63.67a5,5,0,1,0,0,10h55.08a5,5,0,0,0,4.31-2.43l36.78-61.36A154.09,154.09,0,0,0,256,423.92c85.37,0,154.82-69.45,154.82-154.82A154.73,154.73,0,0,0,345.44,142.79ZM256,413.88c-79.83,0-144.78-64.95-144.78-144.78S176.17,124.32,256,124.32s144.78,65,144.78,144.78S335.83,413.88,256,413.88Z"/><path d="M256,152a117.29,117.29,0,0,0-112.23,83.74l-.09.29a116.72,116.72,0,0,0-4.75,33c0,.55,0,1.1,0,1.64,0,.16,0,.32,0,.48a4.58,4.58,0,0,0,0,.53A117.3,117.3,0,0,0,231.52,383.6l.12,0A117.08,117.08,0,0,0,373,271.74a4.41,4.41,0,0,0,0-.52c0-.16,0-.32,0-.48,0-.54,0-1.09,0-1.64A117.2,117.2,0,0,0,256,152Zm68,122-3.29-31.65h38.95A106.43,106.43,0,0,1,363,266.23C354.91,266.58,338.69,268.14,324,274Zm-68-112a107.2,107.2,0,0,1,100.52,70.28h-201A107.21,107.21,0,0,1,256,162.07ZM149,266.27a106.86,106.86,0,0,1,3.34-23.88h39L188,274.07C173.31,268.19,157.08,266.65,149,266.27Zm.22,10.18c8.73.52,26.67,2.33,40.47,9.38a4.54,4.54,0,0,0,.62.32,39.18,39.18,0,0,1,11.1,8.37c15.78,17.69,23,60.53,25.27,77.53A107.28,107.28,0,0,1,149.23,276.45Zm87.91,98c-1.72-14.31-9-65.12-28.22-86.63a47.62,47.62,0,0,0-11.3-9.09l3.79-36.36H310.59l3.79,36.35a47.66,47.66,0,0,0-11.3,9.1c-19.19,21.51-26.51,72.33-28.23,86.63a107.91,107.91,0,0,1-37.71,0Zm48.16-2.41c2.3-17,9.49-59.84,25.28-77.54a39.39,39.39,0,0,1,11.08-8.36,4.71,4.71,0,0,0,.67-.35c13.81-7.05,31.72-8.88,40.44-9.38A107.28,107.28,0,0,1,285.3,372.06Z"/><path d="M275.9,269.1A19.9,19.9,0,1,0,256,289,19.92,19.92,0,0,0,275.9,269.1ZM256,279a9.86,9.86,0,1,1,9.86-9.86A9.87,9.87,0,0,1,256,279Z"/><path d="M448.33,81.68H423.94a5,5,0,1,0,0,10h24.39a5,5,0,1,0,0-10Z"/><path d="M63.67,430.32H88.06a5,5,0,0,0,0-10H63.67a5,5,0,1,0,0,10Z"/></svg>