<?xml version="1.0" ?><svg data-name="Layer 1" id="Layer_1" viewBox="0 0 64 64" xmlns="http://www.w3.org/2000/svg"><defs><style>.cls-1{fill:#1a1a1a;}</style></defs><path class="cls-1" d="M10,40a1,1,0,0,1-.39-.08,1,1,0,0,1-.53-1.31l5.48-12.79A3,3,0,0,1,17.32,24H18a1,1,0,0,1,0,2h-.68a1,1,0,0,0-.92.61L10.92,39.39A1,1,0,0,1,10,40Z"/><path class="cls-1" d="M23,26H21a1,1,0,0,1,0-2h2a1,1,0,0,1,0,2Z"/><path class="cls-1" d="M23,50H16.46a1,1,0,0,1,0-2H23a1,1,0,0,1,0,2Z"/><path class="cls-1" d="M5.39,46A.92.92,0,0,1,5,45.93a1,1,0,0,1-.57-1.29l1.83-4.72A3,3,0,0,1,9.08,38H10a1,1,0,0,1,0,2H9.08a1,1,0,0,0-.93.64L6.32,45.36A1,1,0,0,1,5.39,46Z"/><path class="cls-1" d="M9.54,50H8a1,1,0,0,1,0-2H9.54a1,1,0,0,1,0,2Z"/><path class="cls-1" d="M45.54,50H27a1,1,0,0,1,0-2H45.54a1,1,0,0,1,0,2Z"/><path class="cls-1" d="M59,50H52.46a1,1,0,0,1,0-2H58V44a1,1,0,0,1,0-2h1a1,1,0,0,1,1,1v6A1,1,0,0,1,59,50Z"/><path class="cls-1" d="M58,44H27a1,1,0,0,1,0-2H56.89L55.2,25.89a1,1,0,0,0-1-.89H52a1,1,0,0,1,0-2h2.2a3,3,0,0,1,3,2.68L59,42.9a1,1,0,0,1-.25.77A1,1,0,0,1,58,44Z"/><path class="cls-1" d="M31,25H27a1,1,0,0,1,0-2h4a1,1,0,0,1,0,2Z"/><path class="cls-1" d="M52,25H31a1,1,0,0,1-1-1V23a3,3,0,0,1,3-3H50a3,3,0,0,1,3,3v1A1,1,0,0,1,52,25ZM32,23H51a1,1,0,0,0-1-1H33A1,1,0,0,0,32,23Z"/><path class="cls-1" d="M13,56a5,5,0,1,1,5-5A5,5,0,0,1,13,56Zm0-8a3,3,0,0,0-3,3,3,3,0,0,0,6,0,3,3,0,0,0-.41-1.5h0A3,3,0,0,0,13,48Z"/><path class="cls-1" d="M49,56a5,5,0,1,1,5-5A5,5,0,0,1,49,56Zm0-8a3,3,0,0,0-3,3,3,3,0,0,0,6,0,3,3,0,0,0-.41-1.5h0A3,3,0,0,0,49,48Z"/><path class="cls-1" d="M23,30H14.29a1,1,0,0,1,0-2H23a1,1,0,0,1,0,2Z"/><path class="cls-1" d="M23,40H10a1,1,0,0,1,0-2H23a1,1,0,0,1,0,2Z"/><path class="cls-1" d="M8,50H4a1,1,0,0,1-1-1V45a1,1,0,0,1,1-1H8a1,1,0,0,1,1,1v4A1,1,0,0,1,8,50ZM5,48H7V46H5Z"/><path class="cls-1" d="M27,50H23a1,1,0,0,1-1-1V43a1,1,0,0,1,2,0v5h2V43a1,1,0,0,1,2,0v6A1,1,0,0,1,27,50Z"/><path class="cls-1" d="M27,44H23a1,1,0,0,1-1-1V24a1,1,0,0,1,1-1h4a1,1,0,0,1,1,1V43A1,1,0,0,1,27,44Zm-3-2h2V25H24Z"/><path class="cls-1" d="M21,26H18a1,1,0,0,1-1-1V22.5a2.5,2.5,0,0,1,5,0V25A1,1,0,0,1,21,26Zm-2-2h1V22.5a.5.5,0,0,0-1,0Z"/><path class="cls-1" d="M43,40H40a1,1,0,0,1-1-1V36H36a1,1,0,0,1-1-1V32a1,1,0,0,1,1-1h3V28a1,1,0,0,1,1-1h3a1,1,0,0,1,1,1v3h3a1,1,0,0,1,1,1v3a1,1,0,0,1-1,1H44v3A1,1,0,0,1,43,40Zm-2-2h1V35a1,1,0,0,1,1-1h3V33H43a1,1,0,0,1-1-1V29H41v3a1,1,0,0,1-1,1H37v1h3a1,1,0,0,1,1,1Z"/></svg>